<svg xmlns="http://www.w3.org/2000/svg" xmlns:xlink="http://www.w3.org/1999/xlink" version="1.1" width="1000" height="1000" viewBox="0 0 1000 1000" xml:space="preserve">
<desc>Created with Fabric.js 3.5.0</desc>
<defs>
</defs>
<rect x="0" y="0" width="100%" height="100%" fill="rgba(255,255,255,0)"/>
<g transform="matrix(0.2053 0 0 -0.2053 499.9996 499.9997)" id="333331">
<path style="stroke: none; stroke-width: 1; stroke-dasharray: none; stroke-linecap: butt; stroke-dashoffset: 0; stroke-linejoin: miter; stroke-miterlimit: 4; is-custom-font: none; font-file-url: none; fill: rgb(0,0,0); fill-rule: nonzero; opacity: 1;" vector-effect="non-scaling-stroke" transform=" translate(-5207.1526, -5230.5818)" d="M 4908 7663 c -21 -2 -38 -8 -38 -12 c 0 -4 -16 -5 -35 -3 c -23 3 -35 0 -35 -8 c 0 -8 -9 -10 -24 -6 c -33 8 -92 -4 -74 -15 c 8 -6 1 -7 -17 -3 c -65 12 -503 -125 -478 -150 c 4 -4 0 -4 -8 -1 c -25 9 -293 -132 -419 -220 c -463 -326 -803 -796 -930 -1288 c -72 -278 -70 -633 4 -889 c 122 -418 389 -757 788 -997 c 200 -120 447 -205 754 -257 c 155 -27 593 -25 775 3 c 315 50 559 129 739 240 l 55 34 l -40 -36 c -119 -107 -395 -265 -557 -319 c -278 -93 -659 -129 -1004 -95 c -521 50 -991 282 -1248 616 c -71 92 -159 252 -196 356 c -9 26 -19 50 -23 53 c -6 6 -97 -25 -97 -33 c 0 -23 38 -140 79 -244 c 129 -329 297 -592 531 -833 c 384 -395 891 -658 1431 -743 c 156 -24 512 -24 689 1 c 374 52 683 164 980 357 c 279 181 594 509 769 802 c 265 442 387 1041 320 1565 l -11 82 l -1284 0 l -1284 0 l 0 -360 l 0 -360 l 741 0 l 740 0 l -6 -22 c -18 -59 -105 -209 -169 -291 c -192 -249 -407 -395 -689 -469 c -71 -19 -109 -22 -277 -22 c -182 0 -202 2 -295 27 c -267 74 -524 249 -658 449 c -152 228 -227 473 -227 742 c 0 427 186 810 525 1083 c 102 82 184 128 311 175 c 258 95 526 110 782 43 c 264 -70 450 -186 649 -409 l 62 -70 l 22 30 c 81 109 391 378 529 458 c 25 14 56 35 69 45 l 25 19 l -76 94 c -319 390 -728 656 -1236 802 c -216 62 -335 78 -632 81 c -146 2 -282 1 -302 -2 z m -278 -68 c -19 -7 -45 -14 -58 -14 c -13 -1 -21 -5 -18 -10 c 4 -5 -4 -7 -16 -3 c -24 6 -23 7 49 26 c 63 18 87 18 43 1 z m -161 -48 c 8 -10 7 -14 -2 -14 c -8 0 -14 6 -14 14 c 0 7 1 13 2 13 c 2 0 8 -6 14 -13 z m -41 -11 c -7 -8 -15 -12 -17 -11 c -5 6 10 25 20 25 c 5 0 4 -6 -3 -14 z m -101 -32 c -3 -3 -12 -4 -19 -1 c -8 3 -5 6 6 6 c 11 1 17 -2 13 -5 z m -32 -14 c 3 -5 2 -10 -4 -10 c -5 0 -13 5 -16 10 c -3 6 -2 10 4 10 c 5 0 13 -4 16 -10 z m 180 -39 c -3 -6 -11 -11 -16 -11 c -5 0 -4 6 3 14 c 14 16 24 13 13 -3 z m 172 -17 c -3 -3 -12 -4 -19 -1 c -8 3 -5 6 6 6 c 11 1 17 -2 13 -5 z m 1124 -19 c 341 -51 775 -254 1024 -479 c 34 -31 28 -29 -46 18 c -115 74 -304 167 -415 205 c -190 64 -516 97 -734 72 c -203 -23 -440 -96 -640 -196 c -326 -164 -636 -447 -810 -738 c -123 -206 -202 -429 -235 -662 c -89 -632 203 -1227 740 -1507 c 49 -26 87 -48 84 -48 c -20 -1 -149 49 -234 91 c -123 60 -246 151 -368 273 c -193 194 -315 412 -390 696 c -30 112 -30 121 -31 350 c -1 260 5 305 69 522 c 93 313 281 617 544 877 c 212 210 515 407 734 474 c 235 73 456 89 708 52 z m -1296 5 c -3 -5 -12 -10 -18 -10 c -7 0 -6 4 3 10 c 19 12 23 12 15 0 z m -40 -60 c -3 -5 -12 -10 -18 -10 c -7 0 -6 4 3 10 c 19 12 23 12 15 0 z m 2815 -2018 c 19 -138 8 -384 -25 -542 c -73 -349 -262 -735 -487 -990 c -112 -126 -290 -296 -399 -378 c -190 -144 -432 -262 -688 -336 c -158 -46 -262 -63 -482 -77 c -461 -31 -852 62 -1236 293 c -89 53 -105 68 -45 42 c 192 -84 417 -141 646 -165 c 155 -15 538 -7 656 15 c 356 66 682 189 905 341 c 88 59 208 150 241 180 c 6 5 36 31 66 58 c 60 50 174 166 229 232 c 19 22 40 47 48 55 c 30 32 154 203 201 278 c 123 200 204 396 273 667 c 34 132 67 332 67 413 c 1 60 16 17 30 -86 z" stroke-linecap="round"/>
</g>
</svg>